<?xml version="1.0" encoding="UTF-8" standalone="no"?>
<svg width="100" height="100" viewBox="0 0 100 100" xmlns="http://www.w3.org/2000/svg">
  <defs>
    <pattern id="coffee-pattern" patternUnits="userSpaceOnUse" width="100" height="100">
      <rect width="100" height="100" fill="none"/>
      
      <!-- Coffee Beans -->
      <g fill="#6F4E37" opacity="0.07">
        <!-- Bean 1 -->
        <path d="M10,30 C15,20 25,20 30,30 C35,40 35,50 30,60 C25,70 15,70 10,60 C5,50 5,40 10,30 Z" transform="rotate(45, 20, 45)"/>
        <path d="M12,32 C16,24 24,24 28,32 C32,40 32,48 28,56 C24,64 16,64 12,56 C8,48 8,40 12,32 Z" transform="rotate(45, 20, 45)"/>
        
        <!-- Bean 2 -->
        <path d="M60,10 C70,5 80,5 90,10 C100,15 100,25 90,30 C80,35 70,35 60,30 C50,25 50,15 60,10 Z" transform="rotate(-15, 75, 20)"/>
        <path d="M62,12 C70,8 78,8 86,12 C94,16 94,24 86,28 C78,32 70,32 62,28 C54,24 54,16 62,12 Z" transform="rotate(-15, 75, 20)"/>
        
        <!-- Bean 3 -->
        <path d="M50,50 C55,40 65,40 70,50 C75,60 75,70 70,80 C65,90 55,90 50,80 C45,70 45,60 50,50 Z" transform="rotate(25, 60, 65)"/>
        <path d="M52,52 C56,44 64,44 68,52 C72,60 72,68 68,76 C64,84 56,84 52,76 C48,68 48,60 52,52 Z" transform="rotate(25, 60, 65)"/>
        
        <!-- Bean 4 -->
        <path d="M5,80 C10,70 20,70 25,80 C30,90 30,100 25,110 C20,120 10,120 5,110 C0,100 0,90 5,80 Z" transform="rotate(-20, 15, 95)"/>
        <path d="M7,82 C11,74 19,74 23,82 C27,90 27,98 23,106 C19,114 11,114 7,106 C3,98 3,90 7,82 Z" transform="rotate(-20, 15, 95)"/>
        
        <!-- Coffee Cup Outline -->
        <path d="M85,70 C85,78 78,85 70,85 L65,85 C57,85 50,78 50,70 L50,60 L85,60 L85,70 Z" transform="rotate(10, 67.5, 72.5)" opacity="0.05"/>
        <path d="M90,58 C92,58 94,60 94,62 C94,64 92,66 90,66 L85,66 L85,60 L90,58 Z" transform="rotate(10, 67.5, 72.5)" opacity="0.05"/>
      </g>
    </pattern>
  </defs>
  
  <rect width="100" height="100" fill="url(#coffee-pattern)"/>
</svg>