<?xml version="1.0" encoding="UTF-8"?>
<svg width="512" height="512" version="1.1" viewBox="0 0 512 512" xmlns="http://www.w3.org/2000/svg">
 <g>
  <path d="m103.19 90.859c-13.152 0-23.859 10.707-23.859 23.859v273.42c0 13.152 10.707 23.859 23.859 23.859h305.61c13.152 0 23.859-10.707 23.859-23.859v-273.42c0-13.152-10.707-23.859-23.859-23.859h-305.61zm0 21.859h305.61c1.1094 0 2 0.89062 2 2v273.42c0 1.1094-0.89062 2-2 2h-305.61c-1.1094 0-2-0.89062-2-2v-273.42c0-1.1094 0.89062-2 2-2z" fill="#8B4513"/>
  <path d="m256 152c-70.692 0-128 57.308-128 128 0 70.691 57.308 128 128 128 70.691 0 128-57.309 128-128 0-70.692-57.309-128-128-128zm0 21.333c58.91 0 106.67 47.756 106.67 106.67 0 58.91-47.756 106.67-106.67 106.67-58.91 0-106.67-47.756-106.67-106.67 0-58.91 47.756-106.67 106.67-106.67z" fill="#8B4513"/>
  <path d="m256 184c-53.019 0-96 42.981-96 96s42.981 96 96 96 96-42.981 96-96-42.981-96-96-96zm0 21.333c41.237 0 74.667 33.429 74.667 74.667 0 41.237-33.429 74.667-74.667 74.667-41.237 0-74.667-33.429-74.667-74.667 0-41.237 33.429-74.667 74.667-74.667z" fill="#CD853F"/>
  <circle cx="256" cy="280" r="53.333" fill="#DEB887"/>
  <path d="m432 112h-352c-8.8366 0-16 7.1634-16 16v256c0 8.8366 7.1634 16 16 16h352c8.8366 0 16-7.1634 16-16v-256c0-8.8366-7.1634-16-16-16zm-5.3333 266.67h-341.33c-2.9455 0-5.3333-2.3878-5.3333-5.3333v-234.67c0-2.9455 2.3878-5.3333 5.3333-5.3333h341.33c2.9455 0 5.3333 2.3878 5.3333 5.3333v234.67c0 2.9455-2.3878 5.3333-5.3333 5.3333z" fill="#8B4513"/>
  <path d="m437.33 90.859h-362.67c-13.152 0-23.859 10.707-23.859 23.859v273.42c0 13.152 10.707 23.859 23.859 23.859h362.67c13.152 0 23.859-10.707 23.859-23.859v-273.42c0-13.152-10.707-23.859-23.859-23.859zm2 21.859c1.1094 0 2 0.89062 2 2v273.42c0 1.1094-0.89062 2-2 2h-366.67c-1.1094 0-2-0.89062-2-2v-273.42c0-1.1094 0.89062-2 2-2z" fill="#8B4513"/>
  <path d="m437.33 90.859h-362.67c-13.152 0-23.859 10.707-23.859 23.859v273.42c0 13.152 10.707 23.859 23.859 23.859h362.67c13.152 0 23.859-10.707 23.859-23.859v-273.42c0-13.152-10.707-23.859-23.859-23.859zm2 21.859c1.1094 0 2 0.89062 2 2v273.42c0 1.1094-0.89062 2-2 2h-366.67c-1.1094 0-2-0.89062-2-2v-273.42c0-1.1094 0.89062-2 2-2z" fill="#8B4513"/>
 </g>
</svg>